Coordinates
version=1
nRows=14
nColumns=24
inDegrees=yes

Units are S.I. units (second, meters, Newtons, ...)
Angles are in degrees.

endheader
time	pelvis_tilt	pelvis_list	pelvis_rotation	pelvis_tx	pelvis_ty	pelvis_tz	hip_flexion_r	hip_adduction_r	hip_rotation_r	knee_angle_r	ankle_angle_r	subtalar_angle_r	mtp_angle_r	hip_flexion_l	hip_adduction_l	hip_rotation_l	knee_angle_l	ankle_angle_l	subtalar_angle_l	mtp_angle_l	lumbar_extension	lumbar_bending	lumbar_rotation
      2.02000000	     24.53630831	      3.43053399	     -3.31546663	      0.87943447	      0.96003470	     -0.01984023	    -38.03856877	     -6.27367962	     -5.54826315	    -30.99690230	     -4.77140114	     -0.35019837	     53.88384471	     -8.08344291	      6.48435013	    -14.51017713	    -10.47095894	     -2.05276466	      2.96808251	     23.92521177	    -29.97437354	     -9.07263828	      0.09668117
      2.02500000	     24.54157878	      3.83513697	     -3.49438716	      0.88559320	      0.96062839	     -0.02051424	    -37.24389490	     -6.91536978	     -5.73800233	    -32.68672506	     -6.84410288	     -1.00898907	     55.48452715	     -8.45996747	      7.03143495	    -14.22525755	    -10.50296547	     -1.66445751	      2.89511096	     23.07270031	    -29.90096377	     -9.59750436	      0.01418670
      2.03000000	     24.52458374	      4.21331081	     -3.66675050	      0.89172645	      0.96115115	     -0.02128987	    -36.38753517	     -7.56394226	     -5.97261344	    -34.39008917	     -8.72514404	     -1.38308707	     55.54087893	     -8.82687328	      7.55545121	    -13.99898688	    -10.48709456	     -1.35946859	      2.80901117	     22.95872445	    -29.80937173	    -10.07506392	     -0.05811160
      2.03500000	     24.54642409	      4.61343704	     -3.94076813	      0.89780959	      0.96170902	     -0.02210407	    -35.54374143	     -8.32747345	     -6.14748484	    -36.04688500	    -10.71719763	     -1.66500245	     55.83644595	     -9.32211165	      8.16965465	    -13.76079129	    -10.25241195	     -1.15845829	      2.46684775	     22.72696204	    -29.73967095	    -10.59879943	     -0.08106758
      2.04000000	     24.56138871	      4.96034560	     -4.14619290	      0.90384567	      0.96227266	     -0.02295356	    -34.68286074	     -9.01882045	     -6.34170508	    -37.66731403	    -12.75815434	     -1.73106755	     55.93799896	     -9.80184971	      8.70625994	    -13.51736002	    -10.05183573	     -0.94193230	      2.25099569	     22.55721668	    -29.67874900	    -11.04166128	     -0.07971813
      2.04500000	     24.56235098	      5.25155504	     -4.37643915	      0.91001435	      0.96290947	     -0.02380529	    -33.83843005	     -9.66536488	     -6.39566093	    -39.13962750	    -15.04005122	     -1.78762807	     55.82222773	    -10.32531163	      9.19706463	    -13.33168793	     -9.75749078	     -0.71762434	      2.08417860	     22.44460235	    -29.57288841	    -11.42887242	     -0.10252437
      2.05000000	     24.57882461	      5.52510220	     -4.55922408	      0.91582515	      0.96352946	     -0.02466557	    -32.99982734	    -10.25383046	     -6.47363343	    -40.57637527	    -17.09278794	     -2.26323300	     55.60472824	    -10.89078059	      9.68002606	    -12.93294953	     -9.35092562	     -0.58137689	      1.68493579	     22.20760811	    -29.52980337	    -11.79044804	     -0.06434166
      2.05500000	     24.59523666	      5.68668636	     -4.73114302	      0.92161776	      0.96422958	     -0.02559065	    -32.18919861	    -10.71977400	     -6.45999858	    -41.87404949	    -19.12240142	     -2.81507046	     55.21647086	    -11.42980745	     10.04244200	    -12.62667081	     -9.02864166	     -0.36760980	      1.26156384	     21.86080300	    -29.48783044	    -12.00815454	     -0.04203878
      2.06000000	     24.60193185	      5.76652395	     -4.99013410	      0.92724039	      0.96497446	     -0.02635962	    -31.28966763	    -11.13210710	     -6.25742987	    -43.21783850	    -20.73447319	     -3.39781166	     54.78404006	    -11.97545595	     10.33148037	    -12.48010517	     -8.64991951	     -0.21552025	      1.03300713	     21.66902479	    -29.43335332	    -12.18738250	      0.15169275
      2.06500000	     24.62580652	      5.84534360	     -5.16577602	      0.93281306	      0.96576087	     -0.02717600	    -30.45514632	    -11.48174182	     -6.10615700	    -44.48616837	    -21.48984438	     -3.46366943	     52.68543963	    -12.56658166	     10.61538936	    -12.15643301	     -8.22966850	     -0.01498688	      0.67168742	     20.80003308	    -29.42349370	    -12.33198879	      0.27314318
      2.07000000	     24.62741649	      5.80542847	     -5.29670246	      0.93835476	      0.96660852	     -0.02789526	    -29.59761668	    -11.64436572	     -5.85782142	    -45.71089433	    -21.61083358	     -3.71859163	     52.78361327	    -12.99466265	     10.71096890	    -11.95844743	     -8.13905941	      0.26887227	      0.52936001	     20.73460297	    -29.39280333	    -12.34921013	      0.43300787
      2.07500000	     24.57562466	      5.75246076	     -5.37011624	      0.94365704	      0.96740838	     -0.02885247	    -28.65309027	    -11.77551247	     -5.63623077	    -46.95095150	    -20.90462643	     -3.64447904	     53.85217486	    -13.38224937	     10.79973184	    -11.53582153	     -7.98164253	      0.54775306	      0.15078317	     20.36250136	    -29.34248310	    -12.30593208	      0.53488689
      2.08000000	     24.66802354	      5.62612139	     -5.70367520	      0.94903957	      0.96838701	     -0.02931077	    -27.81545236	    -11.90445881	     -5.14971479	    -48.09706408	    -19.76631945	     -3.86514589	     54.15609740	    -14.04200689	     10.88055435	    -11.62111568	     -7.57213022	      0.68403463	      0.11299153	     20.23422492	    -29.38568419	    -12.31850824	      0.90724358
      2.08500000	     24.66013913	      5.49022081	     -5.93454150	      0.95427113	      0.96927813	     -0.02991343	    -26.88457468	    -11.96900247	     -4.78525847	    -49.17860253	    -18.27061884	     -3.93093452	     54.26626752	    -14.55166082	     10.91030536	    -11.60314298	     -7.24597819	      0.84607443	      0.10574223	     20.07153100	    -29.36572329	    -12.27028499	      1.20649609
